<svg preserveAspectRatio="none" width="100%" height="100%" overflow="visible" style="display: block;" viewBox="0 0 116.804 298" fill="none" xmlns="http://www.w3.org/2000/svg">
<path id="M&#195;&#161;scara" d="M30.9481 18.9682V5.49079L44.4255 11.4807L59.4003 18.9682L44.4255 37.9363L48.4188 68.3853L89.8493 75.8727V103.327L86.8543 133.776L112.811 195.173L116.804 237.601L93.8426 240.097L112.811 277.035L44.4255 298L25.4573 222.127L0 174.707V139.765L25.4573 117.303C22.9615 105.989 17.87 83.1605 17.4707 82.3618C16.9715 81.3635 13.4774 54.9079 13.4774 54.4087C13.4774 54.0094 7.48744 37.6036 4.49246 29.4506L0 5.98995L17.4707 0L16.4724 17.9698L30.9481 18.9682Z" fill="var(--fill-0, #D9D9D9)"/>
</svg>
