<svg preserveAspectRatio="none" width="100%" height="100%" overflow="visible" style="display: block;" viewBox="0 0 69.255 30.2083" fill="none" xmlns="http://www.w3.org/2000/svg">
<g id="Group">
<path id="Vector" d="M18.793 2.47717C16.6233 1.63047 14.6124 2.68885 13.9245 5.12311C13.2365 7.76905 15.6179 14.0135 16.5175 16.236C16.6763 16.6594 16.4117 17.1357 15.9883 17.1886C15.565 17.2944 15.1416 16.9769 15.1416 16.5536C15.0887 15.3893 14.9299 13.2197 14.5066 11.5792C14.1891 10.3621 13.6599 9.83288 12.8661 9.6212C11.3315 9.0391 8.36802 10.1504 9.1618 12.9551C9.63807 14.5956 10.4318 16.6065 10.9081 17.6649C11.0669 18.0353 10.9081 18.5116 10.4848 18.6703C10.0614 18.7761 9.63806 18.5116 9.58515 18.0353C9.37347 15.6539 8.52677 8.98618 6.72754 6.97527C5.03414 5.12311 2.70571 5.12311 1.17107 6.86943C-0.998598 9.35661 0.324368 12.7434 1.32982 14.6485C5.88083 23.3272 5.40457 27.0844 7.52132 29.0424C8.8972 30.3124 10.961 30.577 12.7603 29.6774C14.8241 28.619 14.242 22.9567 13.7657 20.0991H13.8716C14.8241 22.8509 16.9409 28.0898 19.2693 28.0898C21.2802 28.0898 22.9736 26.8727 23.6086 25.1264C24.5611 22.4275 22.3915 19.3053 22.3386 9.51537C22.2856 7.29278 21.8623 3.64139 18.793 2.47717Z" fill="var(--fill-0, #FDFDFD)"/>
<path id="Vector_2" d="M50.8088 1.47171C52.9785 0.730847 54.9894 1.89506 55.5186 4.38224C56.1007 7.02818 53.4018 13.1667 52.3964 15.3364C52.1847 15.7598 52.4493 16.236 52.8726 16.3419C53.296 16.4477 53.7193 16.1302 53.7722 15.7068C53.8781 14.5426 54.1427 12.373 54.6719 10.7854C55.0423 9.56828 55.5715 9.09201 56.3653 8.88033C57.9528 8.35114 60.8104 9.6212 59.9108 12.373C59.3816 14.0135 58.482 15.9714 57.9528 16.9769C57.7411 17.3473 57.9528 17.8236 58.3232 17.9823C58.7466 18.1411 59.1699 17.8765 59.2758 17.4002C59.5933 15.0189 60.7575 8.40406 62.6626 6.49899C64.4618 4.69975 66.7373 4.85851 68.2191 6.65775C70.2829 9.25076 68.8012 12.5846 67.7428 14.3839C62.8213 22.8509 63.1388 26.661 60.9163 28.5132C59.4875 29.7303 57.4236 29.8891 55.6773 28.8836C53.6664 27.7194 54.5131 22.11 55.0952 19.2524L54.9894 19.1995C53.931 21.8983 51.5497 27.0315 49.2212 26.9256C47.2103 26.8198 45.5698 25.5497 45.0406 23.7505C44.1939 20.9987 46.5224 17.9823 47.0516 8.19239C47.1045 6.12856 47.6866 2.53008 50.8088 1.47171Z" fill="var(--fill-0, #FDFDFD)"/>
<g id="Group_2">
<path id="Vector_3" d="M44.0882 12.8493C44.0882 7.08112 43.4002 -0.645015 34.5099 0.0429287C31.5994 0.254604 26.2546 0.677955 25.8312 7.8749C25.4079 15.1248 25.2491 22.2159 27.6305 24.703C30.0118 27.2431 36.7854 28.3544 40.5426 25.1264C44.2998 21.9513 44.0882 17.1357 44.0882 12.8493ZM36.3091 13.7489C35.9387 16.4477 36.7325 18.7762 34.1395 18.5116C32.4461 18.3528 32.8694 16.1831 33.2398 13.4314C33.6103 10.7325 32.9752 8.40409 35.4095 8.66868C36.9441 8.82744 36.6796 10.9971 36.3091 13.7489Z" fill="var(--fill-0, #FDFDFD)"/>
</g>
</g>
</svg>
