<svg preserveAspectRatio="none" width="100%" height="100%" overflow="visible" style="display: block;" viewBox="0 0 36.3032 20.6384" fill="none" xmlns="http://www.w3.org/2000/svg">
<g id="Group">
<path id="Vector" d="M31.1162 20.6384H5.18604C2.32843 20.6384 0 18.3099 0 15.4523C0 12.5947 2.32843 10.2663 5.18604 10.2663H31.1162C33.9738 10.2663 36.3023 12.5947 36.3023 15.4523C36.3552 18.3099 33.9738 20.6384 31.1162 20.6384Z" fill="var(--fill-0, #FFCA49)"/>
<path id="Vector_2" d="M31.1163 10.3721H5.18614C2.32853 10.3721 0.000101677 8.04366 0.000101677 5.18604C0.000101677 2.32843 2.32853 0 5.18614 0H31.1163C33.9739 0 36.3024 2.32843 36.3024 5.18604C36.3553 8.04366 33.9739 10.3721 31.1163 10.3721Z" fill="var(--fill-0, #FFCA49)"/>
<path id="Vector_3" d="M4.18053 9.89588H32.1216" stroke="var(--stroke-0, #030401)" stroke-width="1.58756" stroke-miterlimit="10" stroke-linecap="round" stroke-linejoin="round"/>
</g>
</svg>
