<svg preserveAspectRatio="none" width="100%" height="100%" overflow="visible" style="display: block;" viewBox="0 0 95.898 51.2332" fill="none" xmlns="http://www.w3.org/2000/svg">
<g id="Group">
<path id="Vector" d="M94.4646 7.52794C93.1945 7.73962 90.6544 9.32718 88.8023 10.5972C87.4793 13.2961 85.4155 14.7249 85.3096 14.7778C85.1509 14.8836 85.0451 14.8836 84.8863 14.8836C84.6217 14.8836 84.3571 14.7778 84.1984 14.5132C83.9338 14.1428 84.0396 13.6665 84.41 13.4019C84.4629 13.4019 86.2622 12.1319 87.4264 9.75053C87.5322 9.48593 87.8497 9.32718 88.1143 9.32718C90.0194 5.04076 89.7548 2.18315 88.3789 1.4952C87.8497 1.23061 87.4264 1.33645 87.1089 1.54813C87.056 3.92947 86.3151 8.79799 81.4466 12.7669C81.2878 12.8727 81.1291 12.9257 80.9703 12.9257C80.7586 12.9257 80.494 12.8198 80.3353 12.6081C80.0707 12.2906 80.1236 11.7614 80.4411 11.4968C85.733 7.21043 85.6272 1.70688 85.5213 0.542673C85.3626 0.22516 85.098 0.0134855 84.8334 0.0134855C84.2513 -0.0394332 83.775 0.0664042 83.4046 0.278079C83.4046 1.1777 83.2458 6.94584 76.7897 11.6027C76.631 11.7085 76.4722 11.7614 76.3135 11.7614C76.0489 11.7614 75.8372 11.6556 75.6784 11.4439C75.4138 11.0735 75.5197 10.5972 75.8372 10.3326C81.4995 6.2579 81.7641 1.23061 81.7641 0.383915C81.4466 -0.0394348 80.8645 -0.145272 79.859 0.383915C77.7952 1.49521 77.3189 4.51157 69.1165 10.121C64.4597 13.2961 62.6604 16.63 61.9196 18.9055C61.655 19.6463 61.4962 20.4401 61.3375 21.2339C60.8083 24.9911 61.4962 54.8902 79.4886 48.5399C83.6692 47.0582 84.7275 44.4652 84.2513 41.1313C83.9867 41.0784 83.7221 40.9197 83.6162 40.6021L81.6053 34.5694C81.4995 34.3048 81.5524 34.0402 81.7112 33.8815C80.2824 30.8122 78.536 27.4254 77.1072 23.9327L76.7368 24.1444C76.631 24.1973 76.4722 24.2503 76.3664 24.2503C76.1018 24.2503 75.7843 24.0915 75.6784 23.8269C75.6784 23.774 75.6255 23.7211 75.6255 23.6682C75.5197 23.2977 75.6784 22.9273 76.0489 22.7685L76.5781 22.5039L78.9065 21.2868C79.1182 21.181 79.4357 21.181 79.6473 21.2868C83.5104 18.9055 89.1727 15.6774 93.7237 11.5498C96.3697 9.22134 96.5813 7.21043 94.4646 7.52794Z" fill="var(--fill-0, #4BC17E)"/>
<path id="Vector_2" d="M77.2131 24.0915L79.7003 22.8215C80.0707 22.6098 80.2295 22.1335 80.0178 21.7631C79.9649 21.6043 79.8061 21.4985 79.7003 21.4456C78.589 22.1335 77.6364 22.7686 76.8956 23.2977C77.0014 23.5623 77.1073 23.8269 77.2131 24.0915Z" fill="var(--fill-0, #030401)"/>
<path id="Vector_3" d="M76.4721 23.5623C76.4721 23.5623 76.2075 23.6681 75.7313 23.774C75.7313 23.8269 75.7842 23.8798 75.7842 23.9327C75.9429 24.1973 76.2075 24.3561 76.4721 24.3561C76.578 24.3561 76.7367 24.3032 76.8426 24.2502L77.213 24.0386C77.1072 23.774 77.0013 23.5094 76.8955 23.1919C76.7367 23.4035 76.578 23.5094 76.4721 23.5623Z" fill="var(--fill-0, #030401)"/>
<path id="Vector_4" d="M78.9594 21.3927L76.631 22.6098C76.7368 22.8215 76.7898 23.0331 76.8956 23.2448C77.6365 22.6627 78.589 22.0806 79.7003 21.3927C79.4357 21.2868 79.1711 21.2868 78.9594 21.3927Z" fill="var(--fill-0, #030401)"/>
<path id="Vector_5" d="M75.6784 23.8269C76.1547 23.7211 76.4193 23.6152 76.4193 23.6152C76.5251 23.5094 76.6839 23.4035 76.8426 23.2977C76.7368 23.086 76.6839 22.8744 76.578 22.6627L76.0488 22.9273C75.7313 23.0331 75.5726 23.4565 75.6784 23.8269Z" fill="var(--fill-0, #030401)"/>
<path id="Vector_6" d="M84.5158 41.343C84.6216 41.343 84.6745 41.343 84.7804 41.2901C85.2037 41.1313 85.4154 40.708 85.2566 40.2846L83.2457 34.2519C83.087 33.8285 82.6636 33.6169 82.2403 33.7756C82.0815 33.8285 81.9228 33.9344 81.8169 34.0931C83.0341 36.7391 84.0395 39.2262 84.357 41.343C84.4099 41.2901 84.4629 41.343 84.5158 41.343Z" fill="var(--fill-0, #030401)"/>
<path id="Vector_7" d="M83.722 40.7609C83.8279 41.0255 84.0925 41.2372 84.357 41.2901C84.0395 39.1733 83.0341 36.6861 81.8169 34.0402C81.6582 34.2519 81.6582 34.5165 81.7111 34.7282" fill="var(--fill-0, #030401)"/>
<path id="Vector_8" d="M75.89 10.4914C75.5196 10.756 75.4667 11.2322 75.7313 11.6027C75.89 11.8143 76.1546 11.9202 76.3663 11.9202C76.5251 11.9202 76.6838 11.8673 76.8426 11.7614C83.2457 7.10458 83.4574 1.33643 83.4574 0.436812C82.5049 1.01892 82.1874 2.23605 82.1874 2.23605C82.2932 1.60103 82.1874 0.913087 81.8698 0.542656C81.8169 1.33644 81.5523 6.36371 75.89 10.4914Z" fill="var(--fill-0, #030401)"/>
<path id="Vector_9" d="M80.494 11.6027C80.1765 11.8673 80.1236 12.3965 80.3882 12.714C80.5469 12.9256 80.7586 13.0315 81.0232 13.0315C81.182 13.0315 81.3936 12.9786 81.4995 12.8727C86.368 8.90381 87.1089 4.03529 87.1618 1.65394C86.4209 2.18313 86.1034 3.45319 86.1034 3.45319C86.0505 2.39481 85.8917 1.33643 85.5213 0.701406C85.6271 1.86562 85.733 7.31625 80.494 11.6027Z" fill="var(--fill-0, #030401)"/>
<path id="Vector_10" d="M87.4264 9.80344C86.2622 12.1848 84.4629 13.4019 84.41 13.4548C84.0396 13.7194 83.9338 14.1957 84.1983 14.5661C84.3571 14.7778 84.6217 14.9366 84.8863 14.9366C85.0451 14.9366 85.2038 14.8836 85.3096 14.8307C85.4155 14.7778 87.4793 13.4019 88.8023 10.6501C87.5851 11.4968 86.7384 12.1319 86.7384 12.1319C87.3206 11.1793 87.7439 10.2268 88.1143 9.38009C87.8497 9.38009 87.5851 9.53885 87.4264 9.80344Z" fill="var(--fill-0, #030401)"/>
<path id="Vector_11" d="M34.5606 22.9273C34.4547 22.1335 34.2431 21.3398 33.9785 20.5989C33.2905 18.3234 31.4384 14.9895 26.7815 11.8144C18.5262 6.20499 18.1028 3.18863 16.039 2.07734C15.0865 1.54815 14.4515 1.65399 14.1339 2.07734C14.1339 2.97695 14.3985 7.8984 20.0608 12.0261C20.4313 12.2907 20.4842 12.7669 20.2196 13.1373C20.0608 13.349 19.7962 13.4549 19.5846 13.4549C19.4258 13.4549 19.2671 13.4019 19.1083 13.2961C12.7051 8.63926 12.4935 2.87112 12.4935 1.9715C12.123 1.75983 11.6468 1.60107 11.0647 1.70691C10.7471 1.75983 10.5355 1.9715 10.3767 2.23609C10.2709 3.40031 10.165 8.90385 15.4569 13.1903C15.7744 13.4549 15.8273 13.9841 15.5627 14.3016C15.404 14.5132 15.1923 14.6191 14.9277 14.6191C14.769 14.6191 14.5573 14.5662 14.4515 14.4603C9.58293 10.4914 8.84207 5.62289 8.78915 3.24155C8.47164 2.97695 8.04829 2.92404 7.5191 3.18863C6.14322 3.87658 5.93154 6.73418 7.7837 11.0206C8.04829 11.0206 8.31288 11.1794 8.47164 11.4439C9.63585 13.8253 11.4351 15.0953 11.488 15.0953C11.8584 15.3599 11.9643 15.8362 11.6997 16.2066C11.5409 16.4183 11.2763 16.5771 11.0117 16.5771C10.853 16.5771 10.6942 16.5241 10.5884 16.4712C10.4825 16.4183 8.41872 15.0424 7.09575 12.2907C5.29651 11.0206 2.7035 9.43304 1.43345 9.22136C-0.6833 8.90385 -0.471624 10.9148 2.17431 13.349C6.6724 17.4767 12.3876 20.7047 16.2507 23.0861C16.4624 22.9802 16.727 22.9802 16.9916 23.0861L19.32 24.3032L19.8492 24.5678C20.1667 24.7266 20.3254 25.1499 20.2725 25.4674C20.2725 25.5203 20.2196 25.5733 20.2196 25.6262C20.0608 25.8908 19.7962 26.0495 19.5317 26.0495C19.4258 26.0495 19.2671 25.9966 19.1612 25.9437L18.7908 25.732C17.5207 28.8542 15.9861 31.8706 14.6631 34.6753C14.8219 34.8869 14.8748 35.2045 14.769 35.4691L11.6468 42.9306C11.1176 46.3174 12.1759 48.9104 16.3565 50.3921C34.4018 56.5836 35.1427 26.6845 34.5606 22.9273Z" fill="var(--fill-0, #4BC17E)"/>
<path id="Vector_12" d="M16.3565 22.9273C16.1978 22.9802 16.0919 23.1389 16.039 23.2448C15.8274 23.6152 15.9861 24.0915 16.3565 24.3032L18.8437 25.5732C18.9496 25.3086 19.0554 25.044 19.1612 24.7265C18.4204 24.2502 17.4678 23.6152 16.3565 22.9273Z" fill="var(--fill-0, #030401)"/>
<path id="Vector_13" d="M19.5846 25.8907C19.8492 25.8907 20.1667 25.732 20.2726 25.4674C20.2726 25.4145 20.3255 25.3615 20.3255 25.3086C19.8492 25.2028 19.5846 25.0969 19.5846 25.0969C19.4788 24.9911 19.32 24.8853 19.1613 24.7794C19.0554 25.044 18.9496 25.3086 18.8438 25.6261L19.2142 25.8378C19.32 25.8907 19.4259 25.8907 19.5846 25.8907Z" fill="var(--fill-0, #030401)"/>
<path id="Vector_14" d="M19.4258 24.1444L17.0974 22.9273C16.8857 22.8214 16.5682 22.8214 16.3565 22.9273C17.4678 23.6152 18.4203 24.2502 19.1612 24.7794C19.267 24.5677 19.3199 24.3561 19.4258 24.1444Z" fill="var(--fill-0, #030401)"/>
<path id="Vector_15" d="M19.955 24.409L19.4258 24.1444C19.32 24.3561 19.267 24.5678 19.1612 24.7794C19.32 24.8853 19.4258 24.9911 19.5846 25.097C19.5846 25.097 19.8491 25.2028 20.3254 25.3086C20.4313 24.9911 20.2725 24.5678 19.955 24.409Z" fill="var(--fill-0, #030401)"/>
<path id="Vector_16" d="M14.3457 34.3048C13.9223 34.146 13.499 34.3048 13.2873 34.7281L9.90048 42.8247C9.74172 43.2481 9.90048 43.6714 10.3238 43.8831C10.4297 43.936 10.5355 43.936 10.6413 43.936C10.9589 43.936 11.2234 43.7772 11.3822 43.4597L11.6468 42.7718C12.0172 40.3904 13.2344 37.5857 14.6632 34.5694C14.6102 34.4635 14.5044 34.3577 14.3457 34.3048Z" fill="var(--fill-0, #030401)"/>
<path id="Vector_17" d="M14.6631 34.5694C13.2343 37.5858 12.0172 40.3904 11.6468 42.7718L14.769 35.3102C14.9277 35.0457 14.8748 34.7811 14.6631 34.5694Z" fill="var(--fill-0, #030401)"/>
<path id="Vector_18" d="M19.2141 13.2961C19.3729 13.4019 19.5316 13.4548 19.6904 13.4548C19.955 13.4548 20.1667 13.349 20.3254 13.1373C20.59 12.7669 20.4842 12.2906 20.1667 12.026C14.5044 7.89837 14.2398 2.924 14.2398 2.0773C13.9222 2.50065 13.8693 3.1886 13.9222 3.7707C13.9222 3.7707 13.6047 2.55357 12.6522 1.97147C12.5993 2.87109 12.758 8.63922 19.2141 13.2961Z" fill="var(--fill-0, #030401)"/>
<path id="Vector_19" d="M14.5573 14.4074C14.716 14.5132 14.8748 14.5661 15.0335 14.5661C15.2452 14.5661 15.5098 14.4603 15.6686 14.2486C15.9332 13.9311 15.8802 13.4019 15.5627 13.1373C10.2709 8.85091 10.3767 3.34737 10.4825 2.18316C10.1121 2.81818 10.0063 3.82363 9.90043 4.93493C9.90043 4.93493 9.58292 3.66488 8.84205 3.13569C8.94789 5.51704 9.68875 10.4385 14.5573 14.4074Z" fill="var(--fill-0, #030401)"/>
<path id="Vector_20" d="M10.6943 16.3125C10.853 16.4183 10.9589 16.4183 11.1176 16.4183C11.3822 16.4183 11.6468 16.3125 11.8056 16.0479C12.0702 15.6774 11.9643 15.2012 11.5939 14.9366C11.5939 14.9366 9.74175 13.6665 8.57754 11.2852C8.4717 11.0206 8.15418 10.8618 7.88959 10.8618C8.26002 11.7085 8.73629 12.6082 9.26548 13.6136C9.26548 13.6136 8.36586 12.9257 7.20165 12.1319C8.57754 14.8837 10.5884 16.2595 10.6943 16.3125Z" fill="var(--fill-0, #030401)"/>
</g>
</svg>
