<svg preserveAspectRatio="none" width="100%" height="100%" overflow="visible" style="display: block;" viewBox="0 0 100.334 100.387" fill="none" xmlns="http://www.w3.org/2000/svg">
<g id="Group">
<path id="Vector" d="M95.2538 32.7038L95.8888 32.8625L95.3596 33.0213C92.4491 33.8151 90.2265 36.2493 89.8031 39.2657L89.1152 43.7109L88.4272 39.2657C87.951 36.2493 85.7813 33.8151 82.8708 33.0213L82.3416 32.8625L82.9766 32.7038C85.8872 31.91 88.0568 29.5286 88.5331 26.5652L89.1681 22.808L89.8031 26.5652C90.1736 29.5286 92.3432 31.91 95.2538 32.7038Z" fill="var(--fill-0, #FFCA49)"/>
<path id="Vector_2" d="M47.6797 9.89581L48.3148 10.0546L47.7856 10.2133C44.8751 11.0071 42.6525 13.4414 42.2291 16.4577L41.5412 20.9029L40.8532 16.4577C40.377 13.4414 38.2073 11.0071 35.2968 10.2133L34.7676 10.0546L35.4026 9.89581C38.3131 9.10203 40.4828 6.72069 40.9591 3.75724L41.5941 1.0839e-05L42.2291 3.75724C42.5996 6.72069 44.7692 9.15495 47.6797 9.89581Z" fill="var(--fill-0, #FFCA49)"/>
<path id="Vector_3" d="M99.9634 44.6105L100.334 44.7163L99.9634 44.8221C98.1113 45.2984 96.7883 46.8331 96.4708 48.6852L96.0474 51.4899L95.6241 48.6852C95.3595 46.8331 93.9836 45.2984 92.1315 44.8221L91.761 44.7163L92.1315 44.6105C93.9307 44.1342 95.3066 42.6525 95.6241 40.8003L95.9945 38.4719L96.365 40.8003C96.8412 42.5996 98.1642 44.1342 99.9634 44.6105Z" fill="var(--fill-0, #FFCA49)"/>
<path id="Vector_4" d="M8.2024 47.2035L8.57283 47.3093L8.2024 47.4152C6.35025 47.8914 5.02728 49.4261 4.70976 51.2782L4.28642 54.0829L3.86306 51.2782C3.59847 49.4261 2.22258 47.8914 0.370429 47.4152L0 47.3093L0.370429 47.2035C2.16967 46.7272 3.54555 45.2455 3.86306 43.3934L4.2335 41.0649L4.60393 43.3934C5.02728 45.1926 6.40317 46.7272 8.2024 47.2035Z" fill="var(--fill-0, #FFCA49)"/>
<path id="Vector_5" d="M30.4812 19.9504L30.8517 20.0562L30.4812 20.162C28.6291 20.6383 27.3061 22.1729 26.9886 24.0251L26.5653 26.8298L26.1419 24.0251C25.8773 22.1729 24.5014 20.6383 22.6493 20.162L22.2788 20.0562L22.6493 19.9504C24.4485 19.4741 25.8244 17.9924 26.1419 16.1402L26.5123 13.8118L26.8828 16.1402C27.3061 17.9924 28.682 19.4741 30.4812 19.9504Z" fill="var(--fill-0, #FFCA49)"/>
<g id="Group_2">
<path id="Vector_6" d="M12.4359 93.5074L12.8063 93.6132L12.4359 93.7191C10.5837 94.1953 9.26077 95.73 8.94326 97.5821L8.51991 100.387L8.09656 97.5821C7.83197 95.73 6.45608 94.1953 4.60393 93.7191L4.2335 93.6132L4.60393 93.5074C6.40316 93.0311 7.77905 91.5494 8.09656 89.6972L8.57283 87.3688L8.94326 89.6972C9.26077 91.5494 10.6367 93.0311 12.4359 93.5074Z" fill="var(--fill-0, #FFCA49)"/>
</g>
</g>
</svg>
