<svg preserveAspectRatio="none" width="100%" height="100%" overflow="visible" style="display: block;" viewBox="0 0 69.2549 30.2083" fill="none" xmlns="http://www.w3.org/2000/svg">
<g id="Group">
<path id="Vector" d="M18.793 2.47719C16.6234 1.63049 14.6125 2.68886 13.9245 5.12312C13.2366 7.76906 15.6179 14.0135 16.5175 16.2361C16.6763 16.6594 16.4117 17.1357 15.9884 17.1886C15.565 17.2944 15.1417 16.9769 15.1417 16.5536C15.0887 15.3894 14.93 13.2197 14.5066 11.5792C14.1891 10.3621 13.6599 9.83289 12.8661 9.62122C11.3315 9.03911 8.36806 10.1504 9.16184 12.9551C9.63811 14.5956 10.4319 16.6065 10.9082 17.6649C11.0669 18.0353 10.9082 18.5116 10.4848 18.6703C10.0615 18.7762 9.63811 18.5116 9.58519 18.0353C9.37351 15.6539 8.52681 8.98619 6.72758 6.97528C5.03418 5.12312 2.70575 5.12313 1.17111 6.86944C-0.998559 9.35662 0.324407 12.7434 1.32986 14.6485C5.88087 23.3272 5.4046 27.0844 7.52135 29.0424C8.89724 30.3124 10.9611 30.577 12.7603 29.6774C14.8241 28.619 14.242 22.9567 13.7658 20.0991H13.8716C14.8241 22.8509 16.9409 28.0898 19.2693 28.0898C21.2802 28.0898 22.9736 26.8727 23.6087 25.1264C24.5612 22.4275 22.3915 19.3053 22.3386 9.51538C22.2857 7.29279 21.8623 3.6414 18.793 2.47719Z" fill="var(--fill-0, #010101)"/>
<path id="Vector_2" d="M50.8088 1.47172C52.9785 0.73086 54.9894 1.89507 55.5186 4.38225C56.1007 7.02819 53.4018 13.1668 52.3964 15.3364C52.1847 15.7598 52.4493 16.236 52.8727 16.3419C53.296 16.4477 53.7194 16.1302 53.7723 15.7069C53.8781 14.5427 54.1427 12.373 54.6719 10.7854C55.0423 9.56829 55.5715 9.09202 56.3653 8.88034C57.9529 8.35116 60.8105 9.62121 59.9108 12.373C59.3817 14.0135 58.482 15.9715 57.9529 16.9769C57.7412 17.3473 57.9528 17.8236 58.3233 17.9824C58.7466 18.1411 59.17 17.8765 59.2758 17.4003C59.5933 15.0189 60.7575 8.40407 62.6626 6.499C64.4619 4.69976 66.7374 4.85852 68.2191 6.65776C70.2829 9.25078 68.8012 12.5847 67.7428 14.3839C62.8214 22.8509 63.1389 26.661 60.9163 28.5132C59.4875 29.7303 57.4237 29.8891 55.6773 28.8836C53.6664 27.7194 54.5131 22.11 55.0952 19.2524L54.9894 19.1995C53.931 21.8984 51.5497 27.0315 49.2213 26.9256C47.2103 26.8198 45.5699 25.5497 45.0407 23.7505C44.194 20.9987 46.5224 17.9824 47.0516 8.19241C47.1045 6.12858 47.6866 2.5301 50.8088 1.47172Z" fill="var(--fill-0, #010101)"/>
<g id="Group_2">
<path id="Vector_3" d="M44.0352 12.8493C44.0352 7.08113 43.3473 -0.645002 34.457 0.0429417C31.5464 0.254617 26.2016 0.677968 25.7783 7.87491C25.3549 15.1248 25.1962 22.2159 27.5775 24.7031C29.9589 27.2432 36.7325 28.3545 40.4897 25.1264C44.2998 21.9513 44.0882 17.1357 44.0352 12.8493ZM36.3091 13.7489C35.9387 16.4478 36.7325 18.7762 34.1394 18.5116C32.446 18.3528 32.8694 16.1832 33.2398 13.4314C33.6103 10.7325 32.9752 8.4041 35.4095 8.6687C36.9441 8.82745 36.6795 10.9971 36.3091 13.7489Z" fill="var(--fill-0, #010101)"/>
</g>
</g>
</svg>
