<svg preserveAspectRatio="none" width="100%" height="100%" overflow="visible" style="display: block;" viewBox="0 0 128 138.435" fill="none" xmlns="http://www.w3.org/2000/svg">
<path id="Vector" d="M38.8431 138.435C38.261 138.435 37.6259 138.382 37.0438 138.33C35.8267 138.277 34.5567 138.118 33.3395 137.747C33.022 137.642 32.2811 137.43 31.1699 136.954C29.4765 136.319 28.0476 135.525 26.7776 134.519C22.9675 131.926 18.3106 127.428 15.9822 119.967C9.84361 114.516 3.96963 105.097 5.98054 89.4856C7.72686 76.203 5.13384 68.3181 2.85834 61.3857C0.476995 54.0829 -2.01018 46.5685 2.54083 37.0431C7.5681 26.6181 14.7121 23.9722 20.4274 21.8554C24.5021 20.3737 27.6772 19.1566 31.1169 15.2935C34.2391 11.695 45.7225 0 62.6565 0C72.2348 0 81.2839 3.81015 89.5921 11.2717C97.9533 18.8391 103.033 20.4266 107.532 21.8554C114.305 24.0251 119.491 26.3006 124.783 35.9318C130.022 45.563 127.747 55.1942 125.736 63.6612C124.518 68.7414 123.407 73.5041 123.989 77.6847C124.201 79.1664 124.571 80.8598 124.942 82.659C126.053 87.898 127.27 93.8249 126.318 100.228C125.259 107.16 121.714 113.14 115.787 118.009C113.511 125.735 108.696 130.339 104.833 132.985C103.563 133.937 102.134 134.784 100.44 135.419C99.3821 135.895 98.5883 136.107 98.2708 136.213C97.0008 136.583 95.7836 136.795 94.5665 136.795C93.9844 136.848 93.3494 136.901 92.7672 136.901C89.01 136.901 85.5703 135.737 82.6069 133.567C81.4426 133.884 80.2784 134.096 79.0084 134.096H53.0782C52.2315 134.096 51.4377 133.99 50.644 133.884C47.3101 136.848 43.2882 138.435 38.8431 138.435Z" fill="var(--fill-0, #FDFDFD)"/>
</svg>
