<svg preserveAspectRatio="none" width="100%" height="100%" overflow="visible" style="display: block;" viewBox="0 0 224.032 5.08974" fill="none" xmlns="http://www.w3.org/2000/svg">
<path id="Vector 5" opacity="0.6" d="M1.00008 1.87297C1.46728 1.82334 1.93447 1.77372 14.1191 1.56526C26.3038 1.35681 50.1917 0.991024 65.5608 1.00017C80.9299 1.00931 87.0562 1.40447 93.7071 1.54744C100.358 1.69041 107.348 1.56921 111.856 1.59922C118.184 1.64134 121.222 2.29182 127.271 2.98976C132.129 3.55029 140.69 3.92603 152.562 4.05611C164.435 4.1862 179.378 3.9049 187.462 3.79157C196.318 3.66743 197.88 3.69376 199.554 3.5458C201.487 3.55625 208.718 3.44037 218.346 3.16237C221.8 3.04731 222.349 2.98508 223.032 3.02075" stroke="var(--stroke-0, #005DE8)" stroke-width="2" stroke-linecap="round"/>
</svg>
