<svg preserveAspectRatio="none" width="100%" height="100%" overflow="visible" style="display: block;" viewBox="0 0 204.382 5.08952" fill="none" xmlns="http://www.w3.org/2000/svg">
<path id="Vector 5" opacity="0.3" d="M1.00009 1.8729C1.42594 1.82329 1.85179 1.77367 12.9581 1.56522C24.0644 1.35678 45.8382 0.991025 59.8471 1.00017C73.856 1.00931 79.4401 1.40444 85.5024 1.5474C91.5646 1.69036 97.9358 1.56917 102.045 1.59918C107.813 1.6413 110.582 2.29173 116.096 2.98962C120.523 3.55011 128.327 3.92582 139.149 4.0559C149.971 4.18597 163.591 3.9047 170.96 3.79138C179.032 3.66724 180.456 3.69357 181.981 3.54562C183.744 3.55607 190.334 3.4402 199.11 3.16222C202.259 3.04717 202.759 2.98494 203.382 3.0206" stroke="var(--stroke-0, #0B8747)" stroke-width="2" stroke-linecap="round"/>
</svg>
