<svg preserveAspectRatio="none" width="100%" height="100%" overflow="visible" style="display: block;" viewBox="0 0 238.314 5.08953" fill="none" xmlns="http://www.w3.org/2000/svg">
<path id="Vector 5" opacity="0.3" d="M1.00007 1.8729C1.49732 1.82329 1.99457 1.77367 14.963 1.56522C27.9314 1.35678 53.356 0.991025 69.7137 1.00017C86.0714 1.00931 92.5918 1.40444 99.6705 1.5474C106.749 1.69036 114.189 1.56917 118.987 1.59918C125.721 1.6413 128.955 2.29173 135.393 2.98962C140.563 3.55011 149.675 3.92582 162.312 4.0559C174.948 4.18597 190.852 3.9047 199.456 3.79138C208.882 3.66724 210.545 3.69357 212.326 3.54562C214.384 3.55607 222.079 3.4402 232.327 3.16222C236.003 3.04717 236.587 2.98494 237.314 3.0206" stroke="var(--stroke-0, #0B8747)" stroke-width="2" stroke-linecap="round"/>
</svg>
